<svg xmlns="http://www.w3.org/2000/svg" xmlns:xlink="http://www.w3.org/1999/xlink" xml:space="preserve" width="1280" height="720" viewBox="0 0 2208.7 1242.4"><path d="M0 0h2208.7v1242.4H0Z" style="font-variation-settings:&quot;wght&quot;600;fill:#1c1e1f;fill-opacity:1;stroke-width:1.72555"/><path d="M1369.72 621.44a12 12 0 0 0-8.53 3.34 10.46 10.46 0 0 0-3.5 7.9c0 3.1 1.17 5.77 3.5 8a12.1 12.1 0 0 0 8.53 3.3c3.3 0 6.13-1.1 8.47-3.3a10.61 10.61 0 0 0 3.55-8c0-3.07-1.18-5.7-3.55-7.9a11.82 11.82 0 0 0-8.47-3.34zm125.7 0a12 12 0 0 0-8.52 3.34 10.46 10.46 0 0 0-3.5 7.9c0 3.1 1.16 5.77 3.5 8a12.1 12.1 0 0 0 8.52 3.3c3.31 0 6.14-1.1 8.47-3.3a10.61 10.61 0 0 0 3.56-8c0-3.07-1.19-5.7-3.56-7.9a11.81 11.81 0 0 0-8.47-3.34zm-744.29 4.65c-9.4 0-17.88 2.16-25.4 6.48-7.54 4.3-13.5 10.53-17.89 18.72-4.4 8.2-6.59 18.13-6.59 29.8 0 11.65 2.16 21.57 6.49 29.76 4.35 8.2 10.28 14.45 17.77 18.77 7.53 4.33 16.07 6.49 25.62 6.49 6.87 0 13.02-1.03 18.46-3.09a44.54 44.54 0 0 0 14.12-8.47 42.74 42.74 0 0 0 13.9-26.4l-22.9-.1a22.2 22.2 0 0 1-2.82 7.62 20.2 20.2 0 0 1-5.02 5.7 22.12 22.12 0 0 1-6.95 3.5 28 28 0 0 1-8.42 1.2c-5.4 0-10.16-1.32-14.28-3.97-4.1-2.64-7.31-6.57-9.61-11.76-2.27-5.2-3.4-11.6-3.4-19.24 0-7.43 1.13-13.74 3.4-18.93 2.26-5.23 5.45-9.2 9.56-11.92 4.12-2.76 8.94-4.13 14.49-4.13 3.06 0 5.9.43 8.52 1.3 2.65.88 4.98 2.13 7 3.77a20.09 20.09 0 0 1 4.97 5.96 22.4 22.4 0 0 1 2.57 7.9h22.9a45.42 45.42 0 0 0-5.02-16.53 39.27 39.27 0 0 0-10.04-12.18 43.76 43.76 0 0 0-14.17-7.63 54.92 54.92 0 0 0-17.26-2.62zm205.76 1.46v40.27h-.68a28.62 28.62 0 0 0-4.29-6.6 21.63 21.63 0 0 0-7.32-5.64c-3-1.53-6.74-2.3-11.24-2.3a30.25 30.25 0 0 0-16.26 4.6c-4.92 3.03-8.85 7.62-11.82 13.76-2.96 6.1-4.44 13.75-4.44 22.95 0 8.96 1.43 16.52 4.29 22.7 2.89 6.13 6.8 10.78 11.71 13.95a30.32 30.32 0 0 0 16.57 4.7c4.33 0 7.99-.7 10.98-2.13a22.1 22.1 0 0 0 7.38-5.39 28.3 28.3 0 0 0 4.44-6.64h.94v12.86h21.96V627.55Zm243 0 30.63 107.1h22.07l20.34-70.02h.84l20.39 70.01h22.06l30.65-107.09h-24.74l-17.72 74.57h-.94l-19.5-74.57h-21.18l-19.56 74.41h-.9l-17.72-74.4zm198.7 0v107.1h22.27v-25.5l6.03-6.9 21.89 32.4h26.09l-31.3-45.53 29.78-34.8h-25.57l-25.72 30.49h-1.2v-57.26zm-548.84 25.73c-8.12 0-15.15 1.74-21.07 5.23a35 35 0 0 0-13.65 14.54c-3.2 6.2-4.81 13.45-4.81 21.75 0 8.23 1.6 15.46 4.81 21.7a35.42 35.42 0 0 0 13.65 14.54c5.92 3.45 12.95 5.17 21.07 5.17 8.12 0 15.13-1.72 21.02-5.17a35.32 35.32 0 0 0 13.7-14.54c3.21-6.24 4.81-13.47 4.81-21.7 0-8.3-1.6-15.55-4.8-21.75a34.91 34.91 0 0 0-13.7-14.54c-5.9-3.49-12.9-5.23-21.03-5.23zm183.33 0c-7.88 0-14.75 1.74-20.6 5.23a35.56 35.56 0 0 0-13.54 14.59c-3.21 6.24-4.82 13.49-4.82 21.75 0 8.47 1.6 15.8 4.82 22.01a34.38 34.38 0 0 0 13.7 14.33c5.96 3.35 13.07 5.02 21.33 5.02 6.62 0 12.46-1 17.51-3.03a32.3 32.3 0 0 0 12.45-8.58 28.12 28.12 0 0 0 6.43-12.96l-20.6-1.37a13.65 13.65 0 0 1-3.35 5.13 14.1 14.1 0 0 1-5.28 3.14 21 21 0 0 1-6.8 1.04c-3.73 0-6.95-.78-9.67-2.35a16.07 16.07 0 0 1-6.33-6.7c-1.46-2.89-2.2-6.32-2.2-10.3v-.05h54.7v-6.11c0-6.84-.96-12.8-2.87-17.89a34.44 34.44 0 0 0-8.06-12.75 32.82 32.82 0 0 0-12.02-7.59 41.9 41.9 0 0 0-14.8-2.56zm88.47 0c-8.12 0-15.13 1.76-21.02 5.28a35.35 35.35 0 0 0-13.65 14.6c-3.17 6.2-4.75 13.41-4.75 21.64 0 8.12 1.56 15.3 4.7 21.54a35.35 35.35 0 0 0 13.6 14.64c5.92 3.49 13 5.23 21.23 5.23 7.14 0 13.33-1.3 18.56-3.92a30.32 30.32 0 0 0 12.29-10.88c3-4.67 4.67-10.07 5.02-16.2h-21.02a17.42 17.42 0 0 1-2.67 7.26 13.23 13.23 0 0 1-5.07 4.55 14.7 14.7 0 0 1-6.85 1.57 14.9 14.9 0 0 1-9.05-2.83c-2.58-1.88-4.58-4.61-6.01-8.2-1.4-3.6-2.1-7.95-2.1-13.07 0-5.06.72-9.37 2.15-12.92 1.43-3.56 3.42-6.26 5.96-8.1a14.93 14.93 0 0 1 9.05-2.83c4.08 0 7.37 1.24 9.88 3.71 2.54 2.44 4.11 5.67 4.7 9.68h21.03c-.32-6.2-2-11.61-5.08-16.21a30.77 30.77 0 0 0-12.5-10.72c-5.26-2.55-11.4-3.82-18.4-3.82zm236.98 1.05v80.31h22.27v-80.31zm125.7 0v80.31h22.28v-80.31zm-450.78 15.58c3.24 0 6.08.71 8.52 2.14a15.1 15.1 0 0 1 5.8 5.8 17.06 17.06 0 0 1 2.1 8.53h-33.64c.14-2.87.8-5.52 2.15-7.9a16.5 16.5 0 0 1 6.07-6.22 17.14 17.14 0 0 1 9-2.35zm-183.6.36c3.7 0 6.79 1.07 9.26 3.2 2.48 2.12 4.34 5.01 5.6 8.67a37.48 37.48 0 0 1 1.93 12.5c0 4.67-.64 8.84-1.93 12.5-1.26 3.66-3.12 6.55-5.6 8.68-2.47 2.09-5.56 3.14-9.25 3.14-3.73 0-6.87-1.05-9.42-3.14-2.5-2.13-4.4-5.02-5.7-8.68a38.43 38.43 0 0 1-1.88-12.5c0-4.67.63-8.84 1.89-12.5 1.28-3.66 3.18-6.55 5.7-8.67 2.54-2.13 5.68-3.2 9.4-3.2zm90.63.73c3.59 0 6.64.97 9.15 2.88 2.5 1.92 4.42 4.64 5.75 8.16 1.32 3.52 1.98 7.67 1.98 12.45 0 4.77-.68 8.94-2.04 12.5-1.32 3.55-3.24 6.32-5.75 8.3-2.47 1.96-5.5 2.94-9.1 2.94-3.65 0-6.74-1-9.25-2.99-2.48-2.02-4.38-4.8-5.7-8.36a36.56 36.56 0 0 1-1.94-12.4c0-4.63.65-8.71 1.94-12.23a18.22 18.22 0 0 1 5.7-8.26c2.5-1.99 5.6-2.99 9.26-2.99z" style="font-size:74.6667px;font-family:Inter;-inkscape-font-specification:&quot;Inter, Normal&quot;;white-space:pre;shape-inside:url(#a);mix-blend-mode:normal;fill:#ff417d;fill-opacity:1;stroke-width:1.72555"/><defs><linearGradient xlink:href="#b" id="i" x1="32.4" x2="35.49" y1="131.17" y2="131.17" gradientTransform="translate(22.69 -103.78) scale(1.64038)" gradientUnits="userSpaceOnUse"/><linearGradient id="f"><stop offset="0" style="stop-color:#fff;stop-opacity:0"/><stop offset=".46" style="stop-color:#fff;stop-opacity:.30187508"/><stop offset="1" style="stop-color:#fff;stop-opacity:0"/></linearGradient><linearGradient id="d"><stop offset="0" style="stop-color:#000;stop-opacity:1"/><stop offset="1" style="stop-color:#000;stop-opacity:0"/></linearGradient><linearGradient id="b"><stop offset="0" style="stop-color:#fff;stop-opacity:0"/><stop offset=".5" style="stop-color:#fff;stop-opacity:.30187508"/><stop offset="1" style="stop-color:#fff;stop-opacity:0"/></linearGradient><linearGradient id="c"><stop offset="0" style="stop-color:#fff;stop-opacity:1"/><stop offset="1" style="stop-color:#ffe1e1;stop-opacity:1"/></linearGradient><linearGradient xlink:href="#c" id="s" x1="101.29" x2="117.39" y1="131.96" y2="141.59" gradientTransform="translate(-36.05 -77.54) scale(1.64038)" gradientUnits="userSpaceOnUse"/><linearGradient xlink:href="#b" id="g" x1="32.4" x2="35.49" y1="131.17" y2="131.17" gradientTransform="translate(-36 -104.38) scale(1.64038)" gradientUnits="userSpaceOnUse"/><linearGradient xlink:href="#d" id="r" x1="24.7" x2="67.14" y1="131.72" y2="131.72" gradientTransform="translate(-36.05 -77.54) scale(1.64038)" gradientUnits="userSpaceOnUse"/><linearGradient xlink:href="#b" id="h" x1="32.4" x2="35.49" y1="131.17" y2="131.17" gradientTransform="translate(-8.6 -104.13) scale(1.64038)" gradientUnits="userSpaceOnUse"/><linearGradient id="e"><stop offset="0" style="stop-color:#fff;stop-opacity:0"/><stop offset=".5" style="stop-color:#fff;stop-opacity:.30187508"/><stop offset="1" style="stop-color:#fff;stop-opacity:0"/></linearGradient><linearGradient xlink:href="#b" id="j" x1="32.4" x2="35.49" y1="131.17" y2="131.17" gradientTransform="translate(52.1 -104.81) scale(1.64038)" gradientUnits="userSpaceOnUse"/><linearGradient xlink:href="#b" id="k" x1="32.4" x2="35.49" y1="131.17" y2="131.17" gradientTransform="translate(81.37 -105.14) scale(1.64038)" gradientUnits="userSpaceOnUse"/><linearGradient xlink:href="#b" id="l" x1="32.4" x2="35.49" y1="131.17" y2="131.17" gradientTransform="translate(111.25 -104.02) scale(1.64038)" gradientUnits="userSpaceOnUse"/><linearGradient xlink:href="#e" id="m" x1="87.28" x2="87.28" y1="95.19" y2="99.76" gradientTransform="translate(-36.09 -108.67) scale(1.64038)" gradientUnits="userSpaceOnUse"/><linearGradient xlink:href="#f" id="n" x1="84.53" x2="84.53" y1="95.71" y2="99.34" gradientTransform="translate(-35.7 -79.7) scale(1.64038)" gradientUnits="userSpaceOnUse"/><linearGradient xlink:href="#f" id="o" x1="84.54" x2="84.53" y1="96.03" y2="99.34" gradientTransform="translate(-36.18 -49.96) scale(1.64038)" gradientUnits="userSpaceOnUse"/><linearGradient xlink:href="#f" id="p" x1="84.54" x2="84.53" y1="96.03" y2="99.34" gradientTransform="translate(-35.3 -20.97) scale(1.64038)" gradientUnits="userSpaceOnUse"/><linearGradient xlink:href="#f" id="q" x1="84.54" x2="84.53" y1="96.03" y2="99.34" gradientTransform="translate(-36.15 11.32) scale(1.64038)" gradientUnits="userSpaceOnUse"/><path id="a" d="M481.81 360h657.04v207.35H481.81z"/></defs><g style="display:inline" transform="translate(990.5 274.72) scale(1.1872)"><rect width="190.08" height="166.6" x=".03" y="54.24" rx="20.43" ry="20.5" style="display:inline;fill:#006cb7;fill-opacity:1;stroke:none;stroke-width:.433889;stroke-linecap:butt;stroke-linejoin:miter;stroke-dasharray:none;stroke-opacity:1"/></g><g style="display:inline"><path d="M.06 123.46.03 174.8h132.73L52.64 42.03 42 58.93Z" style="display:inline;fill:#fcac31;fill-opacity:1;stroke:none;stroke-width:.434016px;stroke-linecap:butt;stroke-linejoin:miter;stroke-opacity:1" transform="translate(990.5 274.72) scale(1.1872)"/><path d="m132.76 174.8-24.75 46.05-86.84-.02c-11.72 0-21.13-8.16-21.13-18.8L.03 174.8z" style="fill:#bc255e;fill-opacity:1;stroke:none;stroke-width:.434016px;stroke-linecap:butt;stroke-linejoin:miter;stroke-opacity:1" transform="translate(990.5 274.72) scale(1.1872)"/><path d="m132.76 174.8 26.86 46.03-51.68.02z" style="fill:#12b17c;fill-opacity:1;stroke:none;stroke-width:.434016px;stroke-linecap:butt;stroke-linejoin:miter;stroke-opacity:1" transform="translate(990.5 274.72) scale(1.1872)"/></g><path d="M19.68 27.5v166.38" style="fill:none;stroke:url(#g);stroke-width:2.46056;stroke-linecap:butt;stroke-linejoin:miter;stroke-dasharray:none;stroke-opacity:1" transform="translate(990.44 306.58) scale(1.1872)"/><path d="M47.1 27.4V194" style="fill:none;stroke:url(#h);stroke-width:2.46056;stroke-linecap:butt;stroke-linejoin:miter;stroke-dasharray:none;stroke-opacity:1" transform="translate(990.44 306.58) scale(1.1872)"/><path d="M78.37 27.41v166.6" style="fill:none;stroke:url(#i);stroke-width:2.46056;stroke-linecap:butt;stroke-linejoin:miter;stroke-dasharray:none;stroke-opacity:1" transform="translate(990.44 306.58) scale(1.1872)"/><path d="M107.8 27.4V194" style="fill:none;stroke:url(#j);stroke-width:2.46056;stroke-linecap:butt;stroke-linejoin:miter;stroke-dasharray:none;stroke-opacity:1" transform="translate(990.44 306.58) scale(1.1872)"/><path d="M137.05 27.4V194" style="fill:none;stroke:url(#k);stroke-width:2.46056;stroke-linecap:butt;stroke-linejoin:miter;stroke-dasharray:none;stroke-opacity:1" transform="translate(990.44 306.58) scale(1.1872)"/><path d="M166.93 27.4V194" style="fill:none;stroke:url(#l);stroke-width:2.46056;stroke-linecap:butt;stroke-linejoin:miter;stroke-dasharray:none;stroke-opacity:1" transform="translate(990.44 306.58) scale(1.1872)"/><path d="M0 51.14h190.63" style="fill:none;stroke:url(#m);stroke-width:2.62461;stroke-linecap:butt;stroke-linejoin:miter;stroke-dasharray:none;stroke-opacity:1" transform="translate(990.44 306.58) scale(1.1872)"/><path d="M.1 80.12H191" style="fill:none;stroke:url(#n);stroke-width:2.62461;stroke-linecap:butt;stroke-linejoin:miter;stroke-dasharray:none;stroke-opacity:1" transform="translate(990.44 306.58) scale(1.1872)"/><path d="M.1 109.85h190" style="fill:none;stroke:url(#o);stroke-width:2.62461;stroke-linecap:butt;stroke-linejoin:miter;stroke-dasharray:none;stroke-opacity:1" transform="translate(990.44 306.58) scale(1.1872)"/><path d="M.12 138.84h190" style="fill:none;stroke:url(#p);stroke-width:2.62461;stroke-linecap:butt;stroke-linejoin:miter;stroke-dasharray:none;stroke-opacity:1" transform="translate(990.44 306.58) scale(1.1872)"/><path d="M.12 171.13h190" style="fill:none;stroke:url(#q);stroke-width:2.62461;stroke-linecap:butt;stroke-linejoin:miter;stroke-dasharray:none;stroke-opacity:1" transform="translate(990.44 306.58) scale(1.1872)"/><g style="display:inline"><path d="m157.62 168.27 54.86-98.96 8.21 9.1-.03-51.21-32.32 17.6L199 55.06l-40.88 74.48z" style="display:inline;fill:#d50919;fill-opacity:1;stroke:#d50919;stroke-width:.434016px;stroke-linecap:butt;stroke-linejoin:miter;stroke-opacity:1" transform="translate(990.5 274.72) scale(1.1872)"/><path d="M27.76 106.98 4.78 169.66l19.26.1 2.2-8.21h25.9l2.28 8.51h19.36L50.3 106.98zm11.38 15.67 7.8 23.59H30.88z" style="opacity:1;fill:#000;fill-opacity:1;stroke:url(#r);stroke-width:.434016px;stroke-linecap:butt;stroke-linejoin:miter;stroke-opacity:1" transform="translate(990.5 274.72) scale(1.1872)"/><path d="m113.37 120.93 11 16.58-15.2 31.26h-23l-23.34-60.41h20.21l13.07 40.79s1.08 1.75 2.1 0c1.03-1.74 14.59-27.36 14.59-27.36z" style="fill:#000;fill-opacity:1;stroke:#000;stroke-width:.434016px;stroke-linecap:butt;stroke-linejoin:miter;stroke-opacity:1" transform="translate(990.5 274.72) scale(1.1872)"/><path d="m115.5 117.78 11.47 16 11.78-22.05-.01 56.63h19.07v-77h-26.23z" style="fill:url(#s);fill-opacity:1;stroke:none;stroke-width:.434016px;stroke-linecap:butt;stroke-linejoin:miter;stroke-opacity:1" transform="translate(990.5 274.72) scale(1.1872)"/></g><text xml:space="preserve" x="1105.56" y="862.83" style="font-style:normal;font-variant:normal;font-weight:400;font-stretch:normal;font-size:147.247px;font-family:&quot;Inter V&quot;;-inkscape-font-specification:&quot;Inter V, @wght=700&quot;;font-variant-ligatures:normal;font-variant-caps:normal;font-variant-numeric:normal;font-variant-east-asian:normal;font-variation-settings:&quot;wght&quot;700;text-align:center;writing-mode:lr-tb;direction:ltr;text-anchor:middle;fill:ivory;fill-opacity:1;stroke-width:1.72555"><tspan x="1105.56" y="862.83" style="font-style:normal;font-variant:normal;font-weight:400;font-stretch:normal;font-size:55.2176px;font-family:&quot;Inter V&quot;;-inkscape-font-specification:&quot;Inter V, @wght=600&quot;;font-variant-ligatures:normal;font-variant-caps:normal;font-variant-numeric:normal;font-variant-east-asian:normal;font-variation-settings:&quot;wght&quot;600;fill:ivory;fill-opacity:1;stroke-width:1.72555">Your Guide to All Things Encoding</tspan></text></svg>